HIERARCHY
ROOT Hips
{
 OFFSET 0.000000 0.000000 0.000000
 CHANNELS 6 Xposition Yposition Zposition Yrotation Xrotation Zrotation
 JOINT Chest
 {
  OFFSET 0.000000 9.585900 0.002600
  CHANNELS 3 Yrotation Xrotation Zrotation
  JOINT Chest2
  {
   OFFSET 0.000000 9.601200 -0.005300
   CHANNELS 3 Yrotation Xrotation Zrotation
   JOINT Chest3
   {
    OFFSET 0.000000 9.561800 0.000000
    CHANNELS 3 Yrotation Xrotation Zrotation
    JOINT Chest4
    {
     OFFSET 0.000000 9.552100 0.000000
     CHANNELS 3 Yrotation Xrotation Zrotation
     JOINT Neck
     {
      OFFSET 0.000000 14.453000 0.000000
      CHANNELS 3 Yrotation Xrotation Zrotation
      JOINT Head
      {
       OFFSET 0.000000 8.936500 -0.011300
       CHANNELS 3 Yrotation Xrotation Zrotation
       End Site
       {
        OFFSET 0.000000 17.073600 -0.006000
       }
      }
     }
     JOINT RightCollar
     {
      OFFSET -2.921100 9.558500 0.000000
      CHANNELS 3 Yrotation Xrotation Zrotation
      JOINT RightShoulder
      {
       OFFSET -13.519700 0.000000 0.000000
       CHANNELS 3 Yrotation Xrotation Zrotation
       JOINT RightElbow
       {
        OFFSET 0.000000 -29.696600 0.000000
        CHANNELS 3 Yrotation Xrotation Zrotation
        JOINT RightWrist
        {
         OFFSET 0.000000 -24.004700 0.000000
         CHANNELS 3 Yrotation Xrotation Zrotation
         End Site
         {
          OFFSET 0.000000 -17.728500 0.000000
         }
        }
       }
      }
     }
     JOINT LeftCollar
     {
      OFFSET 2.921100 9.558500 0.000000
      CHANNELS 3 Yrotation Xrotation Zrotation
      JOINT LeftShoulder
      {
       OFFSET 13.519700 0.000000 0.000000
       CHANNELS 3 Yrotation Xrotation Zrotation
       JOINT LeftElbow
       {
        OFFSET 0.000000 -29.696600 0.000000
        CHANNELS 3 Yrotation Xrotation Zrotation
        JOINT LeftWrist
        {
         OFFSET 0.000000 -24.004700 0.000000
         CHANNELS 3 Yrotation Xrotation Zrotation
         End Site
         {
          OFFSET 0.000000 -17.728500 0.000000
         }
        }
       }
      }
     }
    }
   }
  }
 }
 JOINT RightHip
 {
  OFFSET -7.771700 -0.012900 -0.001300
  CHANNELS 3 Yrotation Xrotation Zrotation
  JOINT RightKnee
  {
   OFFSET 0.000000 -40.869800 0.001200
   CHANNELS 3 Yrotation Xrotation Zrotation
   JOINT RightAnkle
   {
    OFFSET 0.000000 -39.717900 0.002100
    CHANNELS 3 Yrotation Xrotation Zrotation
    JOINT RightToe
    {
     OFFSET 0.000000 -4.965400 11.033500
     CHANNELS 3 Yrotation Xrotation Zrotation
     End Site
     {
      OFFSET 0.000000 -1.423100 5.872300
     }
    }
   }
  }
 }
 JOINT LeftHip
 {
  OFFSET 7.771700 -0.012900 -0.001300
  CHANNELS 3 Yrotation Xrotation Zrotation
  JOINT LeftKnee
  {
   OFFSET 0.000000 -40.869800 0.001200
   CHANNELS 3 Yrotation Xrotation Zrotation
   JOINT LeftAnkle
   {
    OFFSET 0.000000 -39.717900 0.002100
    CHANNELS 3 Yrotation Xrotation Zrotation
    JOINT LeftToe
    {
     OFFSET 0.000000 -4.965400 11.033500
     CHANNELS 3 Yrotation Xrotation Zrotation
     End Site
     {
      OFFSET 0.000000 -1.423100 5.872300
     }
    }
   }
  }
 }
}
MOTION
Frames: 6
Frame Time: 0.008333
-93.016747 43.886009 16.683619 175.176865 -23.944373 0.411295 -0.399868 16.517280 2.953273 -0.099356 1.711115 0.350997 -0.158217 2.854010 0.587510 -0.459018 14.578822 2.998235 -3.347345 13.133514 -1.414041 -3.179644 -11.891777 -0.719143 22.323724 -2.247014 -13.359492 30.377333 -40.722818 -59.616228 26.204766 -29.449101 -18.486295 1.904360 -15.099719 -50.625697 -8.247678 -3.984194 -5.451008 20.802952 5.178096 15.513061 170.760244 -63.780688 164.295069 15.483707 2.244320 40.179812 -1.213230 -68.480592 10.648734 -150.319033 68.692066 -148.854947 -11.096043 -26.771526 8.461269 0.258228 -0.682155 0.083139 5.466539 -51.706487 -2.613377 176.971855 58.258294 175.759515 -2.567758 -41.629102 2.921515 0.076068 0.197567 0.025860
-93.021342 43.890406 16.678644 175.191498 -23.958930 0.434170 -0.453872 16.527277 2.894403 -0.075749 1.715725 0.365243 -0.170176 2.849558 0.581898 -0.461504 14.579673 2.996853 -3.371115 13.139128 -1.425128 -3.205436 -11.876201 -0.728745 22.328298 -2.267316 -13.376177 30.332072 -40.689174 -59.564063 26.233613 -29.521961 -18.515224 1.891625 -15.085028 -50.605303 -8.267934 -3.983336 -5.445061 20.869653 5.049613 15.495417 170.686668 -63.589468 164.431910 15.475319 2.283705 39.994551 -1.185566 -68.466651 10.596423 -150.338610 68.682951 -148.884795 -11.136383 -26.763781 8.487411 0.284564 -0.732701 0.086084 5.476786 -51.688118 -2.655890 176.970588 58.261141 175.754281 -2.583217 -41.618262 2.927693 0.090660 0.190992 0.030090
-93.022913 43.894338 16.675557 175.195503 -23.963708 0.439028 -0.475095 16.528652 2.873362 -0.079767 1.715601 0.365180 -0.168382 2.846600 0.579775 -0.449634 14.585320 3.003716 -3.401346 13.140912 -1.439031 -3.215947 -11.864996 -0.731242 22.306767 -2.313095 -13.424148 30.280925 -40.658309 -59.469970 26.264384 -29.592414 -18.541200 1.898020 -15.133518 -50.555953 -8.293792 -3.987909 -5.446449 20.928795 4.913946 15.476242 170.608486 -63.390509 164.569878 15.469918 2.305208 39.804899 -1.186979 -68.460652 10.588550 -150.315628 68.668334 -148.873364 -11.106139 -26.796459 8.501987 0.284502 -0.775412 0.092396 5.474362 -51.680720 -2.666802 176.965370 58.262925 175.750773 -2.586454 -41.608281 2.925975 0.094830 0.184696 0.033303
-93.024787 43.897720 16.674775 175.189490 -23.955014 0.445083 -0.477490 16.518399 2.862521 -0.089538 1.710936 0.360118 -0.165995 2.846803 0.577048 -0.462658 14.578755 2.997806 -3.396531 13.156827 -1.442340 -3.203786 -11.862427 -0.726768 22.329459 -2.314282 -13.421717 30.256948 -40.645592 -59.445006 26.286293 -29.643937 -18.552498 1.898573 -15.140516 -50.533294 -8.277441 -3.974704 -5.440453 20.969400 4.770659 15.451317 170.511953 -63.181356 164.723616 15.460123 2.310821 39.608903 -1.186927 -68.468834 10.591414 -150.243887 68.657690 -148.815316 -11.080552 -26.805713 8.511924 0.280680 -0.771120 0.088185 5.478766 -51.686608 -2.674323 176.950147 58.265756 175.737110 -2.593446 -41.602345 2.924886 0.100014 0.180765 0.032849
-93.023200 43.900594 16.677257 175.172973 -23.929010 0.430451 -0.461553 16.491787 2.877704 -0.107762 1.706555 0.342029 -0.153846 2.846934 0.587462 -0.485404 14.560184 2.975584 -3.363063 13.185068 -1.422950 -3.236291 -11.845224 -0.739290 22.359618 -2.310294 -13.401826 30.231592 -40.633066 -59.421887 26.295227 -29.691996 -18.554820 1.908673 -15.157828 -50.513928 -8.294020 -3.959410 -5.437026 21.065576 4.621477 15.447263 170.397944 -62.960429 164.892385 15.443908 2.304021 39.398293 -1.217721 -68.494814 10.635846 -150.164200 68.653734 -148.742480 -11.010905 -26.833611 8.496756 0.202368 -0.763482 0.089606 5.457202 -51.713107 -2.641387 176.946555 58.267352 175.732728 -2.572829 -41.597216 2.913280 0.088149 0.177840 0.027195
-93.020823 43.905104 16.679069 175.157363 -23.910117 0.409942 -0.462264 16.473466 2.878404 -0.092898 1.705454 0.354620 -0.151619 2.846070 0.589381 -0.486845 14.556463 2.973147 -3.390767 13.194817 -1.434465 -3.250773 -11.828169 -0.741194 22.354104 -2.337037 -13.428831 30.169077 -40.609150 -59.353774 26.323550 -29.778602 -18.564349 1.915366 -15.153560 -50.500578 -8.338628 -3.964874 -5.445219 21.181337 4.464231 15.438237 170.276571 -62.728144 165.061465 15.426296 2.293031 39.171133 -1.271090 -68.517272 10.709221 -150.049872 68.646901 -148.642458 -10.938595 -26.786787 8.469089 0.159101 -0.805163 0.103724 5.418340 -51.734708 -2.593946 176.937125 58.267274 175.721808 -2.566580 -41.590998 2.902308 0.085935 0.174113 0.024217
